<svg width="911" height="911" viewBox="0 0 911 911" fill="none" xmlns="http://www.w3.org/2000/svg">
<circle cx="455.5" cy="455.5" r="455.5" fill="white"/>
<path d="M453.961 134L458.577 135.538L483.196 186.3L503.199 229.371L524.741 273.98L544.744 317.051L566.286 361.66L586.289 404.731L607.83 449.34L627.833 492.411L649.375 537.02L669.378 580.091L690.92 624.7L710.923 667.771L714 677H592.443L578.595 660.079L564.747 646.235L541.667 630.853L520.125 621.623L500.122 615.47L469.348 610.856H441.652L410.878 615.47L383.182 624.7L361.64 635.467L343.176 649.312L327.789 664.694L318.557 677H197L200.077 667.771L227.774 609.317L257.009 547.788L284.705 489.334L312.402 430.881L340.098 372.428L367.795 313.975L395.491 255.521L423.187 197.068L450.884 138.615L453.961 134ZM453.961 349.354L427.804 410.884L407.801 458.569L378.565 527.79L375.488 535.482L377.027 540.096L395.491 532.405L418.571 526.252L444.729 523.176H464.732L490.89 526.252L520.125 533.943L535.512 540.096L530.896 524.714L501.661 455.493L472.426 386.272L457.039 349.354H453.961Z" fill="black"/>
</svg>
